<mxfile host="app.diagrams.net" modified="2023-05-08T13:25:50.238Z" agent="Mozilla/5.0 (Macintosh; Intel Mac OS X 10_15_7) AppleWebKit/537.36 (KHTML, like Gecko) Chrome/112.0.0.0 Safari/537.36" etag="6TJDKGCiyP7zQ2JqSNgw" version="21.2.9" type="github">
  <diagram name="第 1 页" id="Tu4fcT-sJs8Rc5VN7r0L">
    <mxGraphModel dx="1050" dy="582" grid="1" gridSize="10" guides="1" tooltips="1" connect="1" arrows="1" fold="1" page="1" pageScale="1" pageWidth="827" pageHeight="1169" math="0" shadow="0">
      <root>
        <mxCell id="0" />
        <mxCell id="1" parent="0" />
        <mxCell id="fpUOFAKLFycqNZCPX_6Q-1" style="edgeStyle=orthogonalEdgeStyle;rounded=0;orthogonalLoop=1;jettySize=auto;html=1;exitX=0.5;exitY=1;exitDx=0;exitDy=0;entryX=0.5;entryY=0;entryDx=0;entryDy=0;" edge="1" parent="1" source="fpUOFAKLFycqNZCPX_6Q-10" target="fpUOFAKLFycqNZCPX_6Q-12">
          <mxGeometry relative="1" as="geometry" />
        </mxCell>
        <mxCell id="fpUOFAKLFycqNZCPX_6Q-3" style="edgeStyle=orthogonalEdgeStyle;orthogonalLoop=1;jettySize=auto;html=1;exitX=1;exitY=0.5;exitDx=0;exitDy=0;entryX=0;entryY=0.25;entryDx=0;entryDy=0;curved=1;" edge="1" parent="1" source="fpUOFAKLFycqNZCPX_6Q-10" target="fpUOFAKLFycqNZCPX_6Q-15">
          <mxGeometry relative="1" as="geometry" />
        </mxCell>
        <mxCell id="fpUOFAKLFycqNZCPX_6Q-4" style="edgeStyle=orthogonalEdgeStyle;orthogonalLoop=1;jettySize=auto;html=1;exitX=1;exitY=0.5;exitDx=0;exitDy=0;entryX=0;entryY=0.5;entryDx=0;entryDy=0;curved=1;" edge="1" parent="1" source="fpUOFAKLFycqNZCPX_6Q-10" target="fpUOFAKLFycqNZCPX_6Q-18">
          <mxGeometry relative="1" as="geometry" />
        </mxCell>
        <mxCell id="fpUOFAKLFycqNZCPX_6Q-5" style="edgeStyle=orthogonalEdgeStyle;orthogonalLoop=1;jettySize=auto;html=1;exitX=1;exitY=0.5;exitDx=0;exitDy=0;entryX=0;entryY=0.5;entryDx=0;entryDy=0;curved=1;" edge="1" parent="1" source="fpUOFAKLFycqNZCPX_6Q-10" target="fpUOFAKLFycqNZCPX_6Q-23">
          <mxGeometry relative="1" as="geometry" />
        </mxCell>
        <mxCell id="fpUOFAKLFycqNZCPX_6Q-39" style="edgeStyle=orthogonalEdgeStyle;orthogonalLoop=1;jettySize=auto;html=1;exitX=1;exitY=0.5;exitDx=0;exitDy=0;entryX=0;entryY=0.5;entryDx=0;entryDy=0;curved=1;" edge="1" parent="1" source="fpUOFAKLFycqNZCPX_6Q-10" target="fpUOFAKLFycqNZCPX_6Q-37">
          <mxGeometry relative="1" as="geometry" />
        </mxCell>
        <mxCell id="fpUOFAKLFycqNZCPX_6Q-10" value="&lt;font style=&quot;font-size: 12px;&quot;&gt;查找数据&lt;br&gt;95%&lt;/font&gt;" style="rounded=1;whiteSpace=wrap;html=1;shadow=0;glass=0;fillColor=#ffcc99;strokeColor=#36393d;direction=east;flipH=0;flipV=1;" vertex="1" parent="1">
          <mxGeometry x="170" y="250" width="80" height="60" as="geometry" />
        </mxCell>
        <mxCell id="fpUOFAKLFycqNZCPX_6Q-11" style="edgeStyle=orthogonalEdgeStyle;rounded=0;orthogonalLoop=1;jettySize=auto;html=1;exitX=0.5;exitY=1;exitDx=0;exitDy=0;" edge="1" parent="1" source="fpUOFAKLFycqNZCPX_6Q-12" target="fpUOFAKLFycqNZCPX_6Q-13">
          <mxGeometry relative="1" as="geometry" />
        </mxCell>
        <mxCell id="fpUOFAKLFycqNZCPX_6Q-12" value="&lt;font style=&quot;font-size: 12px;&quot;&gt;处理数据&lt;br&gt;1%&lt;/font&gt;" style="rounded=1;whiteSpace=wrap;html=1;shadow=0;glass=0;fillColor=#ffcc99;strokeColor=#36393d;direction=east;flipH=0;flipV=1;" vertex="1" parent="1">
          <mxGeometry x="170" y="360" width="80" height="60" as="geometry" />
        </mxCell>
        <mxCell id="fpUOFAKLFycqNZCPX_6Q-13" value="&lt;font style=&quot;font-size: 12px;&quot;&gt;导出数据&lt;br&gt;4%&lt;/font&gt;" style="rounded=1;whiteSpace=wrap;html=1;shadow=0;glass=0;fillColor=#ffcc99;strokeColor=#36393d;direction=east;flipH=0;flipV=1;" vertex="1" parent="1">
          <mxGeometry x="170" y="480" width="80" height="60" as="geometry" />
        </mxCell>
        <mxCell id="fpUOFAKLFycqNZCPX_6Q-14" style="edgeStyle=orthogonalEdgeStyle;rounded=0;orthogonalLoop=1;jettySize=auto;html=1;exitX=0.5;exitY=1;exitDx=0;exitDy=0;entryX=0.5;entryY=0;entryDx=0;entryDy=0;" edge="1" parent="1" source="fpUOFAKLFycqNZCPX_6Q-15" target="fpUOFAKLFycqNZCPX_6Q-18">
          <mxGeometry relative="1" as="geometry" />
        </mxCell>
        <mxCell id="fpUOFAKLFycqNZCPX_6Q-15" value="取订单号分组&lt;br&gt;7%" style="rounded=1;whiteSpace=wrap;html=1;shadow=0;glass=0;fillColor=#dae8fc;strokeColor=#6c8ebf;direction=east;flipH=0;flipV=1;" vertex="1" parent="1">
          <mxGeometry x="390" y="140" width="80" height="60" as="geometry" />
        </mxCell>
        <mxCell id="fpUOFAKLFycqNZCPX_6Q-16" style="edgeStyle=orthogonalEdgeStyle;rounded=0;orthogonalLoop=1;jettySize=auto;html=1;exitX=0.5;exitY=1;exitDx=0;exitDy=0;entryX=0.5;entryY=0;entryDx=0;entryDy=0;" edge="1" parent="1" source="fpUOFAKLFycqNZCPX_6Q-18" target="fpUOFAKLFycqNZCPX_6Q-23">
          <mxGeometry relative="1" as="geometry" />
        </mxCell>
        <mxCell id="fpUOFAKLFycqNZCPX_6Q-17" value="" style="edgeStyle=orthogonalEdgeStyle;rounded=0;orthogonalLoop=1;jettySize=auto;html=1;" edge="1" parent="1" source="fpUOFAKLFycqNZCPX_6Q-18" target="fpUOFAKLFycqNZCPX_6Q-23">
          <mxGeometry relative="1" as="geometry" />
        </mxCell>
        <mxCell id="fpUOFAKLFycqNZCPX_6Q-18" value="查还款计划&lt;br&gt;10%" style="rounded=1;whiteSpace=wrap;html=1;shadow=0;glass=0;fillColor=#dae8fc;strokeColor=#6c8ebf;direction=east;flipH=0;flipV=1;" vertex="1" parent="1">
          <mxGeometry x="390" y="250" width="80" height="60" as="geometry" />
        </mxCell>
        <mxCell id="fpUOFAKLFycqNZCPX_6Q-20" style="edgeStyle=orthogonalEdgeStyle;orthogonalLoop=1;jettySize=auto;html=1;exitX=1;exitY=0.5;exitDx=0;exitDy=0;entryX=0;entryY=0.5;entryDx=0;entryDy=0;curved=1;" edge="1" parent="1" source="fpUOFAKLFycqNZCPX_6Q-23" target="fpUOFAKLFycqNZCPX_6Q-32">
          <mxGeometry relative="1" as="geometry" />
        </mxCell>
        <mxCell id="fpUOFAKLFycqNZCPX_6Q-22" style="edgeStyle=orthogonalEdgeStyle;orthogonalLoop=1;jettySize=auto;html=1;exitX=1;exitY=0.5;exitDx=0;exitDy=0;entryX=0;entryY=0.5;entryDx=0;entryDy=0;curved=1;" edge="1" parent="1" source="fpUOFAKLFycqNZCPX_6Q-23" target="fpUOFAKLFycqNZCPX_6Q-34">
          <mxGeometry relative="1" as="geometry" />
        </mxCell>
        <mxCell id="fpUOFAKLFycqNZCPX_6Q-38" style="edgeStyle=orthogonalEdgeStyle;rounded=0;orthogonalLoop=1;jettySize=auto;html=1;exitX=0.5;exitY=1;exitDx=0;exitDy=0;entryX=0.5;entryY=0;entryDx=0;entryDy=0;" edge="1" parent="1" source="fpUOFAKLFycqNZCPX_6Q-23" target="fpUOFAKLFycqNZCPX_6Q-37">
          <mxGeometry relative="1" as="geometry" />
        </mxCell>
        <mxCell id="fpUOFAKLFycqNZCPX_6Q-23" value="并行执行" style="rounded=1;whiteSpace=wrap;html=1;shadow=0;glass=0;fillColor=#dae8fc;strokeColor=#6c8ebf;direction=east;flipH=0;flipV=1;" vertex="1" parent="1">
          <mxGeometry x="390" y="340" width="80" height="190" as="geometry" />
        </mxCell>
        <mxCell id="fpUOFAKLFycqNZCPX_6Q-36" style="edgeStyle=orthogonalEdgeStyle;rounded=0;orthogonalLoop=1;jettySize=auto;html=1;exitX=0.5;exitY=1;exitDx=0;exitDy=0;entryX=0.5;entryY=0;entryDx=0;entryDy=0;" edge="1" parent="1" source="fpUOFAKLFycqNZCPX_6Q-32" target="fpUOFAKLFycqNZCPX_6Q-34">
          <mxGeometry relative="1" as="geometry" />
        </mxCell>
        <mxCell id="fpUOFAKLFycqNZCPX_6Q-32" value="并行执行" style="rounded=1;whiteSpace=wrap;html=1;shadow=0;glass=0;fillColor=#d5e8d4;strokeColor=#82b366;direction=east;flipH=0;flipV=1;" vertex="1" parent="1">
          <mxGeometry x="580" y="330" width="80" height="130" as="geometry" />
        </mxCell>
        <mxCell id="fpUOFAKLFycqNZCPX_6Q-34" value="&lt;font style=&quot;font-size: 12px;&quot;&gt;处理数据&lt;br&gt;20%&lt;br&gt;&lt;/font&gt;" style="rounded=1;whiteSpace=wrap;html=1;shadow=0;glass=0;fillColor=#d5e8d4;strokeColor=#82b366;direction=east;flipH=0;flipV=1;" vertex="1" parent="1">
          <mxGeometry x="575" y="510" width="90" height="60" as="geometry" />
        </mxCell>
        <mxCell id="fpUOFAKLFycqNZCPX_6Q-37" value="处理数据&lt;br&gt;1%" style="rounded=1;whiteSpace=wrap;html=1;shadow=0;glass=0;fillColor=#dae8fc;strokeColor=#6c8ebf;direction=east;flipH=0;flipV=1;" vertex="1" parent="1">
          <mxGeometry x="390" y="570" width="80" height="60" as="geometry" />
        </mxCell>
      </root>
    </mxGraphModel>
  </diagram>
</mxfile>
